<svg width="166" height="49" xmlns="http://www.w3.org/2000/svg" xmlns:xlink="http://www.w3.org/1999/xlink">
    <defs>
        <path id="a" d="M 0 0 h 94 v 48.3 H 0 z"/>
    </defs>
    <g fill="none" fill-rule="evenodd">
        <path d="M 0 14.1 v 0.1 l 27.9 13.1 L 56 14.2 v 0 L 27.9 1 L 0 14.1 z m 10.1 0.1 L 27.9 5.8 l 17.9 8.4 l -17.9 8.4 l -17.9 -8.4 z M 27.9 32.5 L 0 19.6 v 4.8 l 27.9 13 L 56 24.3 v -4.8 L 27.9 32.5 z m 0 9.7 L 0 29.3 v 4.8 L 27.9 47 L 56 34 v -4.8 l -28.1 13 z" fill="#bdbafa"/>
        <g transform="matrix(1,0,0,1,68,-5)">
            <mask id="b" fill="#fff">
                <use transform="matrix(2,0,0,2,0,0)" xlink:href="#a"/>
            </mask>
            <path d="M 88.6 29.2 C 88.6 27.1 87.8 25.1 86.4 23.6 C 85.7 22.9 84.9 22.3 84.1 21.9 C 83.2 21.5 82.2 21.3 81.2 21.3 c -1 0 -2 0.2 -2.9 0.6 C 77.5 22.3 76.7 22.9 76 23.6 C 74.6 25.1 73.8 27.1 73.9 29.2 C 73.8 31.2 74.6 33.2 76 34.7 C 76.7 35.4 77.5 36 78.4 36.4 C 79.3 36.8 80.2 37 81.2 37 c 1 0 2 -0.2 2.9 -0.6 C 84.9 36 85.7 35.4 86.4 34.7 C 87.8 33.2 88.6 31.2 88.6 29.2 z m 6.4 0 c 0 1.9 -0.4 3.7 -1.1 5.4 C 93.2 36.1 92.2 37.6 91 38.8 c -1.2 1.2 -2.7 2.2 -4.4 2.9 c -1.7 0.7 -3.5 1 -5.4 1 c -1.9 0 -3.7 -0.3 -5.3 -1 C 74.2 41 72.8 40 71.5 38.8 C 70.2 37.6 69.2 36.1 68.6 34.5 c -0.7 -1.6 -1.1 -3.4 -1.1 -5.3 c 0 -1.9 0.4 -3.6 1.1 -5.3 C 69.3 22.3 70.3 20.8 71.5 19.5 C 72.8 18.3 74.3 17.3 75.9 16.6 C 77.6 15.9 79.4 15.6 81.2 15.6 c 1.9 0 3.7 0.4 5.4 1 c 1.7 0.7 3.1 1.6 4.4 2.9 c 1.2 1.2 2.2 2.6 2.9 4.3 c 0.7 1.7 1.1 3.4 1.1 5.4 z M 65.3 41.9 C 64.7 42.2 64.1 42.4 63.5 42.5 c -0.6 0.1 -1.3 0.2 -2 0.2 C 60.6 42.7 59.7 42.6 58.8 42.3 C 58 42.1 57.2 41.7 56.5 41.1 c -0.7 -0.6 -1.2 -1.3 -1.6 -2.2 c -0.4 -0.9 -0.6 -2 -0.6 -3.3 V 5 h 6.5 v 29.5 c 0 1.1 0.2 1.8 0.6 2.2 c 0.4 0.4 0.9 0.6 1.5 0.6 c 0.7 0 1.5 -0.2 2.1 -0.7 v 5.3 z M 51.5 16.2 L 39.9 46.9 c -0.9 2.3 -2 3.9 -3.4 5 c -1.4 1 -3.1 1.5 -5 1.5 c -0.3 0 -0.6 0 -1 -0.1 C 30.2 53.2 29.9 53.1 29.5 53.1 l -2.1 -6 C 27.9 47.3 28.4 47.5 28.9 47.6 c 0.5 0.1 1 0.2 1.5 0.2 c 1 0 1.9 -0.2 2.8 -0.7 c 0.8 -0.5 1.5 -1.3 1.9 -2.6 l 0.9 -2.6 l -9.9 -25.8 h 7 l 5.9 16.6 l 5.6 -16.6 h 6.9 z M 24.5 12.3 H 7.8 v 8.3 h 16.5 v 5.6 H 7.8 v 15.8 H 1 V 6.4 h 23.5 v 5.9 z" fill="#000000" mask="url(#b)"/>
        </g>
    </g>
</svg>